<mxGraphModel dx="1240" dy="851" grid="1" gridSize="10" guides="1" tooltips="1" connect="1" arrows="1" fold="1" page="1" pageScale="1" pageWidth="1654" pageHeight="1169" math="0" shadow="0"><root><mxCell id="0"/><mxCell id="1" parent="0"/><mxCell id="title" value="IT-ландшафт банка &quot;Стандарт&quot; - Бизнес-возможности" style="text;html=1;strokeColor=none;fillColor=none;align=center;verticalAlign=middle;whiteSpace=wrap;rounded=0;fontSize=18;fontStyle=1;fontColor=#FFFFFF;" parent="1" vertex="1"><mxGeometry x="40" y="30" width="1050" height="40" as="geometry"/></mxCell><mxCell id="corner-label" value="Организационная структура" style="rounded=0;whiteSpace=wrap;html=1;fillColor=#2E5C9A;strokeColor=#000000;fontSize=9;fontStyle=1;fontColor=#FFFFFF;align=center;verticalAlign=middle;" parent="1" vertex="1"><mxGeometry x="40" y="80" width="150" height="30" as="geometry"/></mxCell><mxCell id="col1-header" value="Продажи и маркетинг" style="rounded=0;whiteSpace=wrap;html=1;fillColor=#4472C4;strokeColor=#000000;fontSize=9;fontStyle=1;fontColor=#FFFFFF;align=center;verticalAlign=middle;" parent="1" vertex="1"><mxGeometry x="190" y="80" width="450" height="30" as="geometry"/></mxCell><mxCell id="col4-header" value="Поддержка операционных процессов" style="rounded=0;whiteSpace=wrap;html=1;fillColor=#4472C4;strokeColor=#000000;fontSize=8;fontStyle=1;fontColor=#FFFFFF;align=center;verticalAlign=middle;" parent="1" vertex="1"><mxGeometry x="640" y="80" width="300" height="30" as="geometry"/></mxCell><mxCell id="row1-header" value="Управление обслуживанием в сети отделений" style="rounded=0;whiteSpace=wrap;html=1;fillColor=#B8CCE4;strokeColor=#000000;fontSize=8;fontStyle=1;fontColor=#000000;align=left;verticalAlign=middle;spacingLeft=5;" parent="1" vertex="1"><mxGeometry x="40" y="110" width="150" height="60" as="geometry"/></mxCell><mxCell id="r1c1" value="Продажи в сети отделений&lt;br&gt;(АБС Сайт)" style="rounded=0;whiteSpace=wrap;html=1;fillColor=#E8E8E8;strokeColor=#000000;fontSize=9;align=center;verticalAlign=middle;" parent="1" vertex="1"><mxGeometry x="190" y="110" width="150" height="60" as="geometry"/></mxCell><mxCell id="r1c2" value="—" style="rounded=0;whiteSpace=wrap;html=1;fillColor=#F5F5F5;strokeColor=#000000;fontSize=10;align=center;verticalAlign=middle;" parent="1" vertex="1"><mxGeometry x="340" y="110" width="150" height="60" as="geometry"/></mxCell><mxCell id="r1c3" value="—" style="rounded=0;whiteSpace=wrap;html=1;fillColor=#F5F5F5;strokeColor=#000000;fontSize=10;align=center;verticalAlign=middle;" parent="1" vertex="1"><mxGeometry x="490" y="110" width="150" height="60" as="geometry"/></mxCell><mxCell id="r1c4" value="Обслуживание депозитных процессов&lt;br&gt;(АБС Сайт (ПЛАН))" style="rounded=0;whiteSpace=wrap;html=1;fillColor=#E8E8E8;strokeColor=#000000;fontSize=9;align=center;verticalAlign=middle;" parent="1" vertex="1"><mxGeometry x="640" y="110" width="150" height="60" as="geometry"/></mxCell><mxCell id="r1c5" value="Обслуживание кредитных процессов&lt;br&gt;АБС Кредитный конвейер &lt;br&gt;Сайт (ПЛАН)" style="rounded=0;whiteSpace=wrap;html=1;fillColor=#E8E8E8;strokeColor=#000000;fontSize=8;align=center;verticalAlign=middle;" parent="1" vertex="1"><mxGeometry x="790" y="110" width="150" height="60" as="geometry"/></mxCell><mxCell id="row2-header" value="Кол-центр банка" style="rounded=0;whiteSpace=wrap;html=1;fillColor=#B8CCE4;strokeColor=#000000;fontSize=10;fontStyle=1;fontColor=#000000;align=left;verticalAlign=middle;spacingLeft=5;" parent="1" vertex="1"><mxGeometry x="40" y="170" width="150" height="60" as="geometry"/></mxCell><mxCell id="r2c1" value="—" style="rounded=0;whiteSpace=wrap;html=1;fillColor=#F5F5F5;strokeColor=#000000;fontSize=10;align=center;verticalAlign=middle;" parent="1" vertex="1"><mxGeometry x="190" y="170" width="150" height="60" as="geometry"/></mxCell><mxCell id="r2c2" value="Продажи через кол-центр&lt;br&gt;(Система кол-центра)" style="rounded=0;whiteSpace=wrap;html=1;fillColor=#E8E8E8;strokeColor=#000000;fontSize=10;align=center;verticalAlign=middle;" parent="1" vertex="1"><mxGeometry x="340" y="170" width="150" height="60" as="geometry"/></mxCell><mxCell id="r2c3" value="—" style="rounded=0;whiteSpace=wrap;html=1;fillColor=#F5F5F5;strokeColor=#000000;fontSize=10;align=center;verticalAlign=middle;" parent="1" vertex="1"><mxGeometry x="490" y="170" width="150" height="60" as="geometry"/></mxCell><mxCell id="r2c4" value="АБС" style="rounded=0;whiteSpace=wrap;html=1;fillColor=#E8E8E8;strokeColor=#000000;fontSize=10;align=center;verticalAlign=middle;" parent="1" vertex="1"><mxGeometry x="640" y="170" width="150" height="60" as="geometry"/></mxCell><mxCell id="row3-header" value="Партнёрский кол-центр" style="rounded=0;whiteSpace=wrap;html=1;fillColor=#B8CCE4;strokeColor=#000000;fontSize=10;fontStyle=1;fontColor=#000000;align=left;verticalAlign=middle;spacingLeft=5;" parent="1" vertex="1"><mxGeometry x="40" y="230" width="150" height="60" as="geometry"/></mxCell><mxCell id="r3c1" value="—" style="rounded=0;whiteSpace=wrap;html=1;fillColor=#F5F5F5;strokeColor=#000000;fontSize=10;align=center;verticalAlign=middle;" parent="1" vertex="1"><mxGeometry x="190" y="230" width="150" height="60" as="geometry"/></mxCell><mxCell id="r3c2" value="Продажи через кол-центр&lt;br&gt;(Система партнёрского кол-центра)" style="rounded=0;whiteSpace=wrap;html=1;fillColor=#E8E8E8;strokeColor=#000000;fontSize=9;align=center;verticalAlign=middle;" parent="1" vertex="1"><mxGeometry x="340" y="230" width="150" height="60" as="geometry"/></mxCell><mxCell id="r3c3" value="—" style="rounded=0;whiteSpace=wrap;html=1;fillColor=#F5F5F5;strokeColor=#000000;fontSize=10;align=center;verticalAlign=middle;" parent="1" vertex="1"><mxGeometry x="490" y="230" width="150" height="60" as="geometry"/></mxCell><mxCell id="r3c4" value="—" style="rounded=0;whiteSpace=wrap;html=1;fillColor=#F5F5F5;strokeColor=#000000;fontSize=10;align=center;verticalAlign=middle;" parent="1" vertex="1"><mxGeometry x="640" y="230" width="150" height="60" as="geometry"/></mxCell><mxCell id="r3c5" value="—" style="rounded=0;whiteSpace=wrap;html=1;fillColor=#F5F5F5;strokeColor=#000000;fontSize=10;align=center;verticalAlign=middle;" parent="1" vertex="1"><mxGeometry x="790" y="230" width="150" height="60" as="geometry"/></mxCell><mxCell id="row4-header" value="Управление обслуживанием депозитных продуктов" style="rounded=0;whiteSpace=wrap;html=1;fillColor=#B8CCE4;strokeColor=#000000;fontSize=8;fontStyle=1;fontColor=#000000;align=left;verticalAlign=middle;spacingLeft=5;" parent="1" vertex="1"><mxGeometry x="40" y="290" width="150" height="60" as="geometry"/></mxCell><mxCell id="r4c1" value="—" style="rounded=0;whiteSpace=wrap;html=1;fillColor=#F5F5F5;strokeColor=#000000;fontSize=10;align=center;verticalAlign=middle;" parent="1" vertex="1"><mxGeometry x="190" y="290" width="150" height="60" as="geometry"/></mxCell><mxCell id="r4c2" value="—" style="rounded=0;whiteSpace=wrap;html=1;fillColor=#F5F5F5;strokeColor=#000000;fontSize=10;align=center;verticalAlign=middle;" parent="1" vertex="1"><mxGeometry x="340" y="290" width="150" height="60" as="geometry"/></mxCell><mxCell id="r4c3" value="Digital-оповещения клиентов&lt;br&gt;(АБС СМС-шлюз)" style="rounded=0;whiteSpace=wrap;html=1;fillColor=#E8E8E8;strokeColor=#000000;fontSize=9;align=center;verticalAlign=middle;" parent="1" vertex="1"><mxGeometry x="490" y="290" width="150" height="60" as="geometry"/></mxCell><mxCell id="r4c4" value="Обслуживание депозитных процессов&lt;br&gt;(АБС Excel)" style="rounded=0;whiteSpace=wrap;html=1;fillColor=#E8E8E8;strokeColor=#000000;fontSize=9;align=center;verticalAlign=middle;" parent="1" vertex="1"><mxGeometry x="640" y="290" width="150" height="60" as="geometry"/></mxCell><mxCell id="row5-header" value="Управление обслуживанием кредитных продуктов" style="rounded=0;whiteSpace=wrap;html=1;fillColor=#B8CCE4;strokeColor=#000000;fontSize=8;fontStyle=1;fontColor=#000000;align=left;verticalAlign=middle;spacingLeft=5;" parent="1" vertex="1"><mxGeometry x="40" y="350" width="150" height="60" as="geometry"/></mxCell><mxCell id="r5c1" value="—" style="rounded=0;whiteSpace=wrap;html=1;fillColor=#F5F5F5;strokeColor=#000000;fontSize=10;align=center;verticalAlign=middle;" parent="1" vertex="1"><mxGeometry x="190" y="350" width="150" height="60" as="geometry"/></mxCell><mxCell id="r5c5" value="Обслуживание кредитных процессов&lt;br&gt;(АБС Система кредитного скоринга &lt;br&gt;Кредитный конвейер &lt;br&gt;Бюро кредитных историй)" style="rounded=0;whiteSpace=wrap;html=1;fillColor=#E8E8E8;strokeColor=#000000;fontSize=7;align=center;verticalAlign=middle;" parent="1" vertex="1"><mxGeometry x="790" y="350" width="150" height="60" as="geometry"/></mxCell><mxCell id="row6-header" value="Управление IT" style="rounded=0;whiteSpace=wrap;html=1;fillColor=#B8CCE4;strokeColor=#000000;fontSize=10;fontStyle=1;fontColor=#000000;align=left;verticalAlign=middle;spacingLeft=5;" parent="1" vertex="1"><mxGeometry x="40" y="410" width="150" height="60" as="geometry"/></mxCell><mxCell id="r6c1" value="—" style="rounded=0;whiteSpace=wrap;html=1;fillColor=#F5F5F5;strokeColor=#000000;fontSize=10;align=center;verticalAlign=middle;" parent="1" vertex="1"><mxGeometry x="190" y="410" width="150" height="60" as="geometry"/></mxCell><mxCell id="r6c2" value="—" style="rounded=0;whiteSpace=wrap;html=1;fillColor=#F5F5F5;strokeColor=#000000;fontSize=10;align=center;verticalAlign=middle;" parent="1" vertex="1"><mxGeometry x="340" y="410" width="150" height="60" as="geometry"/></mxCell><mxCell id="r6c3" value="Digital-оповещения клиентов&lt;br&gt;(Интернет-банк (MVP) СМС-шлюз)" style="rounded=0;whiteSpace=wrap;html=1;fillColor=#4472C4;strokeColor=#000000;fontSize=9;fontStyle=1;fontColor=#FFFFFF;align=center;verticalAlign=middle;" parent="1" vertex="1"><mxGeometry x="490" y="410" width="150" height="60" as="geometry"/></mxCell><mxCell id="r6c4" value="Интернет-банк (MVP) АБС" style="rounded=0;whiteSpace=wrap;html=1;fillColor=#4472C4;strokeColor=#000000;fontSize=8;fontStyle=1;fontColor=#FFFFFF;align=center;verticalAlign=middle;" parent="1" vertex="1"><mxGeometry x="640" y="410" width="150" height="60" as="geometry"/></mxCell><mxCell id="r6c5" value="Интернет-банк (ПЛАН) АБС Кредитный конвейер" style="rounded=0;whiteSpace=wrap;html=1;fillColor=#4472C4;strokeColor=#000000;fontSize=8;fontStyle=1;fontColor=#FFFFFF;align=center;verticalAlign=middle;" parent="1" vertex="1"><mxGeometry x="790" y="410" width="150" height="60" as="geometry"/></mxCell><mxCell id="legend-title" value="Легенда:" style="text;html=1;strokeColor=none;fillColor=none;align=left;verticalAlign=middle;whiteSpace=wrap;rounded=0;fontSize=12;fontStyle=1;fontColor=#FFFFFF;" parent="1" vertex="1"><mxGeometry x="40" y="500" width="100" height="30" as="geometry"/></mxCell><mxCell id="legend-existing" value="Существующие системы" style="rounded=0;whiteSpace=wrap;html=1;fillColor=#E8E8E8;strokeColor=#000000;fontSize=10;" parent="1" vertex="1"><mxGeometry x="40" y="530" width="180" height="25" as="geometry"/></mxCell><mxCell id="legend-new" value="Новые/планируемые системы" style="rounded=0;whiteSpace=wrap;html=1;fillColor=#4472C4;strokeColor=#000000;fontSize=10;fontStyle=1;fontColor=#FFFFFF;" parent="1" vertex="1"><mxGeometry x="240" y="530" width="200" height="25" as="geometry"/></mxCell><mxCell id="legend-empty" value="Нет покрытия" style="rounded=0;whiteSpace=wrap;html=1;fillColor=#F5F5F5;strokeColor=#000000;fontSize=10;" parent="1" vertex="1"><mxGeometry x="460" y="530" width="150" height="25" as="geometry"/></mxCell><mxCell id="2" value="—" style="rounded=0;whiteSpace=wrap;html=1;fillColor=#F5F5F5;strokeColor=#000000;fontSize=10;align=center;verticalAlign=middle;" parent="1" vertex="1"><mxGeometry x="790" y="170" width="150" height="60" as="geometry"/></mxCell><mxCell id="3" value="—" style="rounded=0;whiteSpace=wrap;html=1;fillColor=#F5F5F5;strokeColor=#000000;fontSize=10;align=center;verticalAlign=middle;" parent="1" vertex="1"><mxGeometry x="790" y="290" width="150" height="60" as="geometry"/></mxCell><mxCell id="4" value="—" style="rounded=0;whiteSpace=wrap;html=1;fillColor=#F5F5F5;strokeColor=#000000;fontSize=10;align=center;verticalAlign=middle;" parent="1" vertex="1"><mxGeometry x="640" y="350" width="150" height="60" as="geometry"/></mxCell><mxCell id="5" value="—" style="rounded=0;whiteSpace=wrap;html=1;fillColor=#F5F5F5;strokeColor=#000000;fontSize=10;align=center;verticalAlign=middle;" parent="1" vertex="1"><mxGeometry x="490" y="350" width="150" height="60" as="geometry"/></mxCell><mxCell id="6" value="—" style="rounded=0;whiteSpace=wrap;html=1;fillColor=#F5F5F5;strokeColor=#000000;fontSize=10;align=center;verticalAlign=middle;" parent="1" vertex="1"><mxGeometry x="340" y="350" width="150" height="60" as="geometry"/></mxCell></root></mxGraphModel>